# xmcd
#
# Track frame offsets:
#	150
#	17763
#	33973
#	48759
#	61836
#	76804
#	92973
#	111518
#	125825
#	138444
#	154768
#	168095
#	178919
#
# Disc length: 2582 seconds
#
# Revision: 0
# Processed by: cddbd v1.5.2PL0 Copyright (c) Steve Scherf et al.
# Submitted via: dBpowerAMP V4.0
#
DISCID=a70a140d
DTITLE=Luiz Tatit - Rodopio
DYEAR=2007
DGENRE=Blues
TTITLE0=Rodopio
TTITLE1=Atração Fatal
TTITLE2=Capitu
TTITLE3=Minta
TTITLE4=Perdido
TTITLE5=Achou!
TTITLE6=Alguém Total
TTITLE7=Baião do Tomás
TTITLE8=Final Feliz
TTITLE9=As Sílabas
TTITLE10=Dodói
TTITLE11=Trio de Efeitos
TTITLE12=Baião de Quatro Toques
EXTD=
EXTT0=
EXTT1=
EXTT2=
EXTT3=
EXTT4=
EXTT5=
EXTT6=
EXTT7=
EXTT8=
EXTT9=
EXTT10=
EXTT11=
EXTT12=
PLAYORDER=
